<svg xmlns="http://www.w3.org/2000/svg" viewBox="0 0 64 64" fill="none">
  <defs>
    <linearGradient id="bg" x1="0" y1="0" x2="64" y2="64" gradientUnits="userSpaceOnUse">
      <stop offset="0%" stop-color="#7c3aed"/>
      <stop offset="100%" stop-color="#a855f7"/>
    </linearGradient>
  </defs>
  <rect width="64" height="64" rx="16" fill="url(#bg)"/>
  <path d="M14 16C14 14.9 14.9 14 16 14H30V50H16C14.9 50 14 49.1 14 48V16Z" fill="white" fill-opacity="0.95"/>
  <path d="M50 16C50 14.9 49.1 14 48 14H34V50H48C49.1 50 50 49.1 50 48V16Z" fill="white" fill-opacity="0.65"/>
  <rect x="30" y="14" width="4" height="36" fill="white" fill-opacity="0.4"/>
  <rect x="18" y="22" width="9" height="2" rx="1" fill="#7c3aed"/>
  <rect x="18" y="27" width="7" height="2" rx="1" fill="#7c3aed" fill-opacity="0.6"/>
  <rect x="18" y="32" width="9" height="2" rx="1" fill="#7c3aed" fill-opacity="0.6"/>
  <rect x="18" y="37" width="6" height="2" rx="1" fill="#7c3aed" fill-opacity="0.5"/>
  <path d="M37 32L40.5 36L47 28" stroke="#a855f7" stroke-width="2.5" stroke-linecap="round" stroke-linejoin="round"/>
  <circle cx="52" cy="12" r="5" fill="#f0abfc" fill-opacity="0.9"/>
  <path d="M52 9L52.6 11.4L55 12L52.6 12.6L52 15L51.4 12.6L49 12L51.4 11.4Z" fill="white"/>
</svg>
